<?xml version="1.0" encoding="utf-8"?>
<!-- Generator: Adobe Illustrator 27.0.0, SVG Export Plug-In . SVG Version: 6.00 Build 0)  -->
<svg version="1.1" id="Layer_1" xmlns="http://www.w3.org/2000/svg" xmlns:xlink="http://www.w3.org/1999/xlink" x="0px" y="0px"
	 viewBox="0 0 128 128" style="enable-background:new 0 0 128 128;" xml:space="preserve">
<style type="text/css">
	.st0{fill:#B04CD9;}
</style>
<g>
	<g>
		<path class="st0" d="M64,0C28.7,0,0,28.7,0,64s28.7,64,64,64s64-28.7,64-64S99.3,0,64,0z M64,120C33.1,120,8,94.9,8,64
			S33.1,8,64,8s56,25.1,56,56S94.9,120,64,120z M72,60.7V40c0-4.4-3.6-8-8-8s-8,3.6-8,8v27.3l25,25c3.1,3.1,8.2,3.1,11.3,0
			c3.1-3.1,3.1-8.2,0-11.3L72,60.7z"/>
	</g>
</g>
</svg>
