<?xml version="1.0" encoding="utf-8"?>
<!-- Generator: Adobe Illustrator 27.0.0, SVG Export Plug-In . SVG Version: 6.00 Build 0)  -->
<svg version="1.1" id="Capa_1" xmlns="http://www.w3.org/2000/svg" xmlns:xlink="http://www.w3.org/1999/xlink" x="0px" y="0px"
	 viewBox="0 0 354.8 354.8" style="enable-background:new 0 0 354.8 354.8;" xml:space="preserve">
<style type="text/css">
	.st0{fill:#B04CD9;}
</style>
<g>
	<g id="Layer_5_58_">
		<g>
			<g>
				<path class="st0" d="M185.6,164.2c-19.4-7.8-25-12.5-25-21c0-6.8,5.1-14.7,19.7-14.7c12.8,0,22.7,5.1,22.8,5.1
					c1,0.6,2.2,0.8,3.3,0.8c2.8,0,5.3-1.7,6.3-4.3l3.5-9c1.2-3.3-0.6-6.1-3-7.2c-7.9-3.4-23.3-6.1-23.5-6.1c-0.2,0-1.1-0.2-1.1-1.2
					l0-13.1c0-3.9-3.3-7.1-7.3-7.1h-6.3c-4,0-7.3,3.2-7.3,7.1l0,13.7c0,1.1-1.1,1.5-1.6,1.6c-19.5,4.6-31.7,18.9-31.7,36.9
					c0,22.4,18.6,32.6,38.6,40.2c16,6.3,22.6,12.7,22.6,22c0,10.2-9.3,17.3-22.5,17.3c-11.3,0-26.6-7.2-26.8-7.2
					c-1-0.5-2-0.7-3.1-0.7c-2.9,0-5.5,1.8-6.5,4.5l-3.4,9.1c-1.2,3.4,0.6,6.2,3,7.4c9.4,4.9,27.6,7.8,28.4,7.9
					c0.2,0,1.3,0.4,1.3,1.4v13.7c0,3.9,3.3,7.1,7.3,7.1h6.5c4,0,7.3-3.2,7.3-7.1v-14.4c0-1.3,1-1.5,1.2-1.5
					c20.8-4.7,33.6-19.9,33.6-38.9C221.9,186.9,211.1,174.2,185.6,164.2z"/>
				<path class="st0" d="M177.4,5.8C82.6,5.8,5.8,82.6,5.8,177.4C5.8,272.2,82.6,349,177.4,349c94.8,0,171.6-76.8,171.6-171.6
					C349,82.6,272.2,5.8,177.4,5.8z M177.4,309.2c-72.8,0-131.8-59-131.8-131.8s59-131.8,131.8-131.8c72.8,0,131.8,59,131.8,131.8
					S250.2,309.2,177.4,309.2z"/>
			</g>
		</g>
	</g>
</g>
</svg>
