<?xml version="1.0" encoding="utf-8"?>
<!-- Generator: Adobe Illustrator 27.0.0, SVG Export Plug-In . SVG Version: 6.00 Build 0)  -->
<svg version="1.1" id="Layer_1" xmlns="http://www.w3.org/2000/svg" xmlns:xlink="http://www.w3.org/1999/xlink" x="0px" y="0px"
	 viewBox="0 0 512 512" style="enable-background:new 0 0 512 512;" xml:space="preserve">
<style type="text/css">
	.st0{fill:#FFFFFF;}
	.st1{fill:#B04CD9;}
</style>
<path id="XMLID_767_" class="st0" d="M305,169.5V36h-86v133.5c-66,18.7-116.1,80.4-116.1,153.8c0,88.1,71.9,159.6,160.1,159.6
	s159.3-71.5,159.3-159.6C422.3,249.9,376,188.2,305,169.5z"/>
<path class="st1" d="M316,161.8V59.2h24.7c1.6,0,2.9-1.2,2.9-2.8V28.2c0-1.6-1.3-2.9-2.9-2.9H316V25H208v0.3h-26.1
	c-1.6,0-2.9,1.3-2.9,2.9v28.1c0,1.6,1.3,2.9,2.9,2.9H208V162c-67,22.8-115.6,88-115.6,161.3c0,93.6,76.5,169.8,170.5,169.8
	c93.4,0,169.9-76.2,169.9-169.8C432.8,247.6,387,183.7,316,161.8z M262.9,472.7c-82.7,0-150-67-150-149.4c0-66.8,44.7-126,108.5-144
	l7.6-2.1v-118h65v118.1l8,2c65.5,17.2,110,75.1,110,144C412,405.7,345.1,472.7,262.9,472.7z"/>
<g id="XMLID_124_">
	<path id="XMLID_1545_" class="st1" d="M261.5,315H138.1c-0.1,4-0.2,4-0.2,5.6c0,67.4,55.5,122.6,122.9,122.6s121-55.4,121-122.8
		c0-1.6-0.1-1.4-0.2-5.4L261.5,315L261.5,315z"/>
</g>
</svg>
