<?xml version="1.0" encoding="utf-8"?>
<!-- Generator: Adobe Illustrator 27.0.0, SVG Export Plug-In . SVG Version: 6.00 Build 0)  -->
<svg version="1.1" id="Capa_1" xmlns="http://www.w3.org/2000/svg" xmlns:xlink="http://www.w3.org/1999/xlink" x="0px" y="0px"
	 viewBox="0 0 457 461" enable-background="new 0 0 457 461" xml:space="preserve">
<path fill="#228A7E" stroke="#228A7E" stroke-miterlimit="10" d="M236.47,290.01c-14.53,0-28.43-2.8-41.25-7.88
	c0.46-2.32,0.7-4.86,0.7-7.64c0-3.92-0.96-10.77-2.87-20.53c-2.74-13.68-3.98-29.7-3.79-48.08c4.14,4.31,8.38,7.57,12.71,9.78
	c4.33,2.21,8.78,3.33,13.33,3.33c6.76,0,14.77-2.82,24.01-8.45s19-15.6,29.3-29.92c0.92,14.05,3.59,23.94,8.03,29.63
	c4.44,5.69,10.4,8.56,17.86,8.56c7.57,0,13.83-3.24,18.78-9.69c4.95-6.46,8.27-18.19,10-35.15h-6.22
	c-1.01,9.37-2.6,15.65-4.77,18.82c-2.17,3.17-4.51,4.75-7.05,4.75c-2.01,0-3.94-0.94-5.76-2.84c-1.82-1.9-3.17-5.01-4.09-9.3
	c-1.12-6.08-1.66-16.72-1.66-31.93V62.28c25.65,15.17,45.24,40.18,54.08,70.14c-0.02-0.04-0.02-0.11-0.04-0.15H378
	C363.14,64.53,305.17,14,235.86,14C155.3,14,90,82.28,90,166.49s65.3,152.49,145.86,152.49c69.02,0,126.8-50.12,141.94-117.43h-29.3
	C334.67,252.58,289.76,290.01,236.47,290.01z M236.47,46.54c11.14,0,21.93,1.64,32.13,4.71v118.72c-7.38,8.73-14.64,15.08-21.8,19
	c-7.18,3.92-13.37,5.89-18.62,5.89c-4.44,0-8.89-1.64-13.33-4.95c-4.44-3.28-7.53-7.79-9.24-13.48c-1.71-5.69-2.58-15.01-2.58-27.92
	V51.66C213.65,48.34,224.85,46.54,236.47,46.54z M119.98,168.29c0-44.78,23.15-83.88,57.62-105.02v127.06
	c0,10.64-0.61,23.57-1.82,38.76c-0.7,8.86-2.47,19.26-5.3,31.16c-0.61,2.67-1.07,5.12-1.36,7.33
	C139.42,245.52,119.98,209.28,119.98,168.29z"/>
<g>
	<path fill="#228A7E" d="M64.91,366.23c-4.56-0.1-9.02,1.12-12.97,3.44c-3.95,2.33-7.1,5.27-9.83,8.81c-5.27,7.2-7.7,15.8-7.7,24.42
		c0,8.62,2.44,17.22,7.7,24.42c2.73,3.54,5.87,6.68,9.83,8.81c3.95,2.33,8.41,3.54,12.97,3.54v3.64c-5.16,0-10.33-1.52-14.8-3.95
		c-4.35-2.54-8.1-5.87-10.95-9.83c-5.77-8.01-8.41-17.32-8.41-26.65s2.64-18.74,8.41-26.54c2.94-4.06,6.58-7.39,10.95-9.93
		c4.46-2.44,9.62-3.95,14.8-3.85L64.91,366.23L64.91,366.23z M64.91,375.35c-3.14,0-5.98,0.71-8.51,2.23
		c-2.73,1.62-5.06,3.75-6.99,6.29c-3.95,5.27-5.87,12.16-5.87,19.05s1.93,13.78,5.87,19.05c1.93,2.54,4.25,4.66,6.99,6.29
		c2.73,1.52,5.58,2.33,8.51,2.33v3.64c-3.54,0-6.99-0.92-10.33-2.83c-3.04-1.73-5.77-4.16-8.1-7.29
		c-4.35-6.08-6.58-13.47-6.58-21.17c0-7.7,2.23-15.09,6.58-21.17c2.33-3.14,5.06-5.58,8.1-7.29c3.25-1.93,6.79-2.83,10.33-2.73
		V375.35z"/>
	<path fill="#228A7E" d="M112.14,381.02v44.38c0,5.16-2.23,10.24-5.98,13.57c-3.25,2.83-7.7,4.46-12.47,4.46
		c-4.46,0-8.62-1.31-12.16-4.46c-3.75-3.35-5.98-8.41-5.98-13.57v-44.38c0-5.16,2.23-10.24,5.98-13.57
		c3.14-3.25,7.29-4.87,12.16-4.87c4.35,0,9.22,1.31,12.47,4.87C109.92,370.79,112.14,375.85,112.14,381.02z M108.79,381.02
		c0-4.16-1.73-8.2-4.87-10.95c-2.54-2.44-6.29-4.06-10.24-4.06c-3.75,0-6.99,1.31-9.93,4.06c-3.14,2.73-4.87,6.79-4.87,10.95v44.38
		c0,4.16,1.73,8.2,4.87,10.95c2.54,2.44,5.77,3.64,9.93,3.64c3.54,0,7.39-0.92,10.24-3.64c3.14-2.73,4.87-6.79,4.87-10.95V381.02z
		 M103.73,381.02v44.38c0,2.73-1.12,5.16-3.54,7.1c-1.73,1.62-4.16,2.33-6.49,2.33c-2.44,0-4.66-0.71-6.58-2.33
		c-2.02-1.92-3.14-4.35-3.14-7.1v-44.38c0-2.75,1.12-5.16,3.14-7.1c1.93-1.62,4.16-2.33,6.58-2.33c2.33,0,4.77,0.71,6.49,2.33
		C102.61,375.85,103.73,378.29,103.73,381.02z M99.99,381.02c0-1.83-0.71-3.35-2.02-4.46c-1.21-1.12-2.73-1.52-4.25-1.52
		c-1.62,0-3.14,0.4-4.35,1.52c-1.31,1.11-2.02,2.63-2.02,4.46v44.38c0,1.83,0.71,3.35,2.02,4.46c1.21,1.11,2.73,1.52,4.35,1.52
		c1.52,0,3.04-0.41,4.25-1.52c1.31-1.12,2.02-2.64,2.02-4.46V381.02z"/>
	<path fill="#228A7E" d="M159.77,404.54c0,9.33-2.73,18.65-8.41,26.65c-3.35,4.35-7.81,8.51-12.97,10.85
		c-1.12,0.5-2.33,1.02-3.64,1.42v-9.83c-2.54,1.31-5.58,2.12-9.12,2.23v-3.64v-69.72c3.14,0,5.98,0.5,9.12,1.42
		c6.49,1.93,12.05,6.29,16.61,12.26C157.03,383.97,159.77,395.21,159.77,404.54z M156.11,404.54c0-8.62-2.44-18.95-7.7-26.15
		c-3.35-4.56-8.01-8.51-13.68-10.64c-1.73-0.71-3.54-1.11-5.47-1.42v65.35c1.93-0.31,3.75-1.11,5.47-2.23v-55.73
		c0.4,0.31,2.83,1.52,3.64,2.23c2.23,1.73,4.06,3.54,5.58,5.68c4.46,6.08,6.68,15.2,6.68,22.9c0,7.7-2.23,15.09-6.68,21.17
		c-1.52,2.12-3.35,3.95-5.58,5.68v6.49c1.73,0,8.2-6.58,10.03-8.91C153.59,421.76,156.11,413.14,156.11,404.54z M138.39,426.63
		c1.11-0.92,1.83-1.92,2.63-3.04c3.95-5.27,5.98-12.16,5.98-19.05s-2.02-15.4-5.98-20.78c-0.81-1.12-1.52-2.12-2.63-3.04V426.63z"/>
	<path fill="#228A7E" d="M174.26,366.03v30.91h5.37V371.4h22.8v3.64h-19.15v21.88h19.15v3.54h-28.17v30.4h5.37v-25.01h22.8v3.54
		h-19.15v21.48h19.15v3.64h-19.15v5.37h19.15v3.54h-31.71v-3.54v-77.4h31.71v3.54H174.26z M179.64,439.89v-5.37h-5.37v5.37H179.64z"
		/>
	<path fill="#228A7E" d="M216.02,362.49h3.44h0.31l14.39,27.77l14.08-27.77h0.6h3.25l-17.93,35.35L216.02,362.49z M252.5,373.21v7.7
		v62.52h-3.64v-55.52l-5.16,10.43v45.09h-3.85v-38.39l-5.68,11.55l-5.77-10.95v37.8h-3.44v-44.59l-5.47-10.34v54.92h-3.44v-61.9
		v-7.7l18.13,35.37L252.5,373.21z"/>
	<path fill="#228A7E" d="M304.69,381.54v61.91h-3.64v-61.91c0-8.41-6.99-15.4-15.4-15.4c-8.41,0-15.3,6.99-15.3,15.4v29.19
		l5.47,3.14v-32.33c0-5.27,4.46-9.93,9.83-9.93c5.47,0,9.93,4.66,9.93,9.93v37.39c-5.37-3.14-10.74-6.08-16.11-9.22v6.29
		c5.37,3.14,10.74,6.08,16.11,9.22v18.24h-3.64v-16.11l-12.47-7.2v23.31h-3.64v-25.34l-5.47-3.14v28.48h-3.64v-45.3v-16.61
		c0-9.22,6.89-17.13,15.8-18.74C293.84,360.86,304.69,369.67,304.69,381.54z M279.46,405.44l12.47,7.1v-31
		c0-3.54-2.73-6.29-6.29-6.29c-3.35,0-6.18,2.73-6.18,6.29V405.44z"/>
	<path fill="#228A7E" d="M345.03,443.45h-4.06l-9.62-22.09v22.09h-3.75v-30.52l-5.47-12.56v43.07h-3.64v-80.96h3.64v28.69
		L345.03,443.45z M355.05,443.45h-3.95l-23.5-53.5v-27.46h3.75v14.2l6.18-14.2h4.06l-10.24,23.21v3.54l2.12,5.06l14.18-31.81h4.06
		l-16.22,36.37L355.05,443.45z"/>
	<path fill="#228A7E" d="M363.98,366.03v30.91h5.37V371.4h22.8v3.64h-19.15v21.88h19.15v3.54h-28.17v30.4h5.37v-25.01h22.8v3.54
		h-19.15v21.48h19.15v3.64h-19.15v5.37h19.15v3.54h-31.71v-3.54v-77.4h31.71v3.54H363.98z M369.35,439.89v-5.37h-5.37v5.37H369.35z"
		/>
	<path fill="#228A7E" d="M429.64,415.78c0.92-1.11,1.83-2.02,2.63-3.14c5.98-8.41,6.99-19.46,2.94-28.88
		c-4.06-8.91-12.47-15.8-22.4-17.22l2.64,6.18c9.12,2.94,15.91,11.14,16.72,20.88c0.81,9.72-4.77,19.55-13.68,23.61v5.98
		c2.44-0.81,4.66-2.12,6.79-3.64l10.03,23.92h-3.95l-7.81-18.55c-1.62,0.81-3.35,1.62-5.06,2.12v16.41h-3.64v-39.22l-5.47-12.97
		v52.19h-3.64v-70.24l15.91,37.7c1.62-1.52,2.94-3.04,3.95-4.77l-18.44-43.68c3.95-0.1,7.81,0.41,11.35,1.62
		c10.03,3.25,18.03,11.35,21.28,21.38c3.25,10.53,1.21,22.3-5.87,31l11.36,26.98h-3.95L429.64,415.78z M427.62,401.69
		c2.33-7.29,0.21-15.3-4.96-20.47c-1.31-1.31-2.75-2.44-4.16-3.14V380L427.62,401.69z"/>
</g>
</svg>
