<?xml version="1.0" encoding="utf-8"?>
<!-- Generator: Adobe Illustrator 27.0.0, SVG Export Plug-In . SVG Version: 6.00 Build 0)  -->
<svg version="1.1" id="Capa_1" xmlns="http://www.w3.org/2000/svg" xmlns:xlink="http://www.w3.org/1999/xlink" x="0px" y="0px"
	 viewBox="0 0 398.75 148.75" enable-background="new 0 0 398.75 148.75" xml:space="preserve">
<g>
	<path fill="#22897D" stroke="#22897D" stroke-miterlimit="10" d="M69.33,130.12c-6.64,0-12.99-1.28-18.85-3.6
		c0.21-1.06,0.32-2.22,0.32-3.49c0-1.79-0.44-4.92-1.31-9.38c-1.25-6.25-1.82-13.57-1.73-21.97c1.89,1.97,3.83,3.46,5.81,4.47
		c1.98,1.01,4.01,1.52,6.09,1.52c3.09,0,6.75-1.29,10.97-3.86c4.22-2.57,8.68-7.13,13.39-13.67c0.42,6.42,1.64,10.94,3.67,13.54
		c2.03,2.6,4.75,3.91,8.16,3.91c3.46,0,6.32-1.48,8.58-4.43c2.26-2.95,3.78-8.31,4.57-16.06h-2.84c-0.46,4.28-1.19,7.15-2.18,8.6
		c-0.99,1.45-2.06,2.17-3.22,2.17c-0.92,0-1.8-0.43-2.63-1.3c-0.83-0.87-1.45-2.29-1.87-4.25c-0.51-2.78-0.76-7.64-0.76-14.59V26.06
		c11.72,6.93,20.67,18.36,24.71,32.05c-0.01-0.02-0.01-0.05-0.02-0.07H134C127.21,27.09,100.72,4,69.05,4
		C32.24,4,2.4,35.2,2.4,73.68s29.84,69.68,66.65,69.68c31.54,0,57.94-22.9,64.86-53.66h-13.39
		C114.2,113.02,93.68,130.12,69.33,130.12z M69.33,18.87c5.09,0,10.02,0.75,14.68,2.15v54.25c-3.37,3.99-6.69,6.89-9.96,8.68
		c-3.28,1.79-6.11,2.69-8.51,2.69c-2.03,0-4.06-0.75-6.09-2.26c-2.03-1.5-3.44-3.56-4.22-6.16c-0.78-2.6-1.18-6.86-1.18-12.76V21.21
		C58.9,19.69,64.02,18.87,69.33,18.87z M16.1,74.5c0-20.46,10.58-38.33,26.33-47.99v58.06c0,4.86-0.28,10.77-0.83,17.71
		c-0.32,4.05-1.13,8.8-2.42,14.24c-0.28,1.22-0.49,2.34-0.62,3.35C24.98,109.79,16.1,93.23,16.1,74.5z"/>
	<g>
		<path fill="#22897D" d="M173.77,54.5c-2.64-0.06-5.22,0.65-7.51,1.99c-2.29,1.35-4.11,3.05-5.69,5.1
			c-3.05,4.17-4.46,9.15-4.46,14.14c0,4.99,1.41,9.97,4.46,14.14c1.58,2.05,3.4,3.87,5.69,5.1c2.29,1.35,4.87,2.05,7.51,2.05v2.11
			c-2.99,0-5.98-0.88-8.57-2.29c-2.52-1.47-4.69-3.4-6.34-5.69c-3.34-4.64-4.87-10.03-4.87-15.43c0-5.4,1.53-10.85,4.87-15.37
			c1.7-2.35,3.81-4.28,6.34-5.75c2.58-1.41,5.57-2.29,8.57-2.23V54.5z M173.77,59.78c-1.82,0-3.46,0.41-4.93,1.29
			c-1.58,0.94-2.93,2.17-4.05,3.64c-2.29,3.05-3.4,7.04-3.4,11.03c0,3.99,1.12,7.98,3.4,11.03c1.12,1.47,2.46,2.7,4.05,3.64
			c1.58,0.88,3.23,1.35,4.93,1.35v2.11c-2.05,0-4.05-0.53-5.98-1.64c-1.76-1-3.34-2.41-4.69-4.22c-2.52-3.52-3.81-7.8-3.81-12.26
			c0-4.46,1.29-8.74,3.81-12.26c1.35-1.82,2.93-3.23,4.69-4.22c1.88-1.12,3.93-1.64,5.98-1.58V59.78z"/>
		<path fill="#22897D" d="M201.12,63.06v25.7c0,2.99-1.29,5.93-3.46,7.86c-1.88,1.64-4.46,2.58-7.22,2.58
			c-2.58,0-4.99-0.76-7.04-2.58c-2.17-1.94-3.46-4.87-3.46-7.86v-25.7c0-2.99,1.29-5.93,3.46-7.86c1.82-1.88,4.22-2.82,7.04-2.82
			c2.52,0,5.34,0.76,7.22,2.82C199.83,57.14,201.12,60.07,201.12,63.06z M199.18,63.06c0-2.41-1-4.75-2.82-6.34
			c-1.47-1.41-3.64-2.35-5.93-2.35c-2.17,0-4.05,0.76-5.75,2.35c-1.82,1.58-2.82,3.93-2.82,6.34v25.7c0,2.41,1,4.75,2.82,6.34
			c1.47,1.41,3.34,2.11,5.75,2.11c2.05,0,4.28-0.53,5.93-2.11c1.82-1.58,2.82-3.93,2.82-6.34V63.06z M196.25,63.06v25.7
			c0,1.58-0.65,2.99-2.05,4.11c-1,0.94-2.41,1.35-3.76,1.35c-1.41,0-2.7-0.41-3.81-1.35c-1.17-1.11-1.82-2.52-1.82-4.11v-25.7
			c0-1.59,0.65-2.99,1.82-4.11c1.12-0.94,2.41-1.35,3.81-1.35c1.35,0,2.76,0.41,3.76,1.35C195.6,60.07,196.25,61.48,196.25,63.06z
			 M194.08,63.06c0-1.06-0.41-1.94-1.17-2.58c-0.7-0.65-1.58-0.88-2.46-0.88c-0.94,0-1.82,0.23-2.52,0.88
			c-0.76,0.64-1.17,1.52-1.17,2.58v25.7c0,1.06,0.41,1.94,1.17,2.58c0.7,0.64,1.58,0.88,2.52,0.88c0.88,0,1.76-0.24,2.46-0.88
			c0.76-0.65,1.17-1.53,1.17-2.58V63.06z"/>
		<path fill="#22897D" d="M228.7,76.68c0,5.4-1.58,10.8-4.87,15.43c-1.94,2.52-4.52,4.93-7.51,6.28c-0.65,0.29-1.35,0.59-2.11,0.82
			v-5.69c-1.47,0.76-3.23,1.23-5.28,1.29v-2.11V52.33c1.82,0,3.46,0.29,5.28,0.82c3.76,1.12,6.98,3.64,9.62,7.1
			C227.11,64.77,228.7,71.28,228.7,76.68z M226.58,76.68c0-4.99-1.41-10.97-4.46-15.14c-1.94-2.64-4.64-4.93-7.92-6.16
			c-1-0.41-2.05-0.64-3.17-0.82V92.4c1.12-0.18,2.17-0.64,3.17-1.29V58.84c0.23,0.18,1.64,0.88,2.11,1.29
			c1.29,1,2.35,2.05,3.23,3.29c2.58,3.52,3.87,8.8,3.87,13.26c0,4.46-1.29,8.74-3.87,12.26c-0.88,1.23-1.94,2.29-3.23,3.29v3.76
			c1,0,4.75-3.81,5.81-5.16C225.12,86.65,226.58,81.66,226.58,76.68z M216.32,89.47c0.64-0.53,1.06-1.11,1.52-1.76
			c2.29-3.05,3.46-7.04,3.46-11.03c0-3.99-1.17-8.92-3.46-12.03c-0.47-0.65-0.88-1.23-1.52-1.76V89.47z"/>
		<path fill="#22897D" d="M237.09,54.38v17.9h3.11V57.49h13.2v2.11h-11.09v12.67h11.09v2.05h-16.31v17.6h3.11V77.44h13.2v2.05
			h-11.09v12.44h11.09v2.11h-11.09v3.11h11.09v2.05h-18.36v-2.05V52.33h18.36v2.05H237.09z M240.2,97.15v-3.11h-3.11v3.11H240.2z"/>
		<path fill="#22897D" d="M261.27,52.33h1.99h0.18l8.33,16.08l8.15-16.08h0.35h1.88L271.77,72.8L261.27,52.33z M282.39,58.54V63
			v36.2h-2.11V67.05l-2.99,6.04v26.11h-2.23V76.97l-3.29,6.69l-3.34-6.34v21.89h-1.99V73.39l-3.17-5.99v31.8h-1.99V63.36V58.9
			l10.5,20.48L282.39,58.54z"/>
		<path fill="#22897D" d="M312.61,63.36v35.85h-2.11V63.36c0-4.87-4.05-8.92-8.92-8.92c-4.87,0-8.86,4.05-8.86,8.92v16.9l3.17,1.82
			V63.36c0-3.05,2.58-5.75,5.69-5.75c3.17,0,5.75,2.7,5.75,5.75v21.65c-3.11-1.82-6.22-3.52-9.33-5.34v3.64
			c3.11,1.82,6.22,3.52,9.33,5.34v10.56h-2.11v-9.33L298,85.71v13.5h-2.11V84.54l-3.17-1.82v16.49h-2.11V72.98v-9.62
			c0-5.34,3.99-9.92,9.15-10.85C306.33,51.39,312.61,56.49,312.61,63.36z M298,77.2l7.22,4.11V63.36c0-2.05-1.58-3.64-3.64-3.64
			c-1.94,0-3.58,1.58-3.58,3.64V77.2z"/>
		<path fill="#22897D" d="M335.97,99.21h-2.35l-5.57-12.79v12.79h-2.17V81.54l-3.17-7.27v24.94h-2.11V52.33h2.11v16.61L335.97,99.21
			z M341.77,99.21h-2.29l-13.61-30.98v-15.9h2.17v8.22l3.58-8.22h2.35l-5.93,13.44v2.05l1.23,2.93l8.21-18.42h2.35l-9.39,21.06
			L341.77,99.21z"/>
		<path fill="#22897D" d="M346.94,54.38v17.9h3.11V57.49h13.2v2.11h-11.09v12.67h11.09v2.05h-16.31v17.6h3.11V77.44h13.2v2.05
			h-11.09v12.44h11.09v2.11h-11.09v3.11h11.09v2.05h-18.36v-2.05V52.33h18.36v2.05H346.94z M350.05,97.15v-3.11h-3.11v3.11H350.05z"
			/>
		<path fill="#22897D" d="M384.96,83.19c0.53-0.64,1.06-1.17,1.52-1.82c3.46-4.87,4.05-11.27,1.7-16.72
			c-2.35-5.16-7.22-9.15-12.97-9.97l1.53,3.58c5.28,1.7,9.21,6.45,9.68,12.09c0.47,5.63-2.76,11.32-7.92,13.67v3.46
			c1.41-0.47,2.7-1.23,3.93-2.11l5.81,13.85h-2.29l-4.52-10.74c-0.94,0.47-1.94,0.94-2.93,1.23v9.5h-2.11V76.5l-3.17-7.51v30.22
			h-2.11V58.54l9.21,21.83c0.94-0.88,1.7-1.76,2.29-2.76l-10.68-25.29c2.29-0.06,4.52,0.24,6.57,0.94
			c5.81,1.88,10.44,6.57,12.32,12.38c1.88,6.1,0.7,12.91-3.4,17.95L394,99.21h-2.29L384.96,83.19z M383.79,75.03
			c1.35-4.22,0.12-8.86-2.87-11.85c-0.76-0.76-1.59-1.41-2.41-1.82v1.11L383.79,75.03z"/>
	</g>
</g>
</svg>
