<?xml version="1.0" encoding="utf-8"?>
<!-- Generator: Adobe Illustrator 27.0.0, SVG Export Plug-In . SVG Version: 6.00 Build 0)  -->
<svg version="1.1" id="Capa_1" xmlns="http://www.w3.org/2000/svg" xmlns:xlink="http://www.w3.org/1999/xlink" x="0px" y="0px"
	 viewBox="0 0 375 375" enable-background="new 0 0 375 375" xml:space="preserve">
<path fill="#FFFFFF" d="M369.95,187.5c0,99.62-80.76,180.38-180.38,180.38S9.2,287.12,9.2,187.5S89.96,7.12,189.58,7.12
	S369.95,87.88,369.95,187.5z M189.58,17.74c-93.76,0-169.76,76.01-169.76,169.76s76.01,169.76,169.76,169.76
	s169.76-76.01,169.76-169.76S283.33,17.74,189.58,17.74z"/>
<g>
	<path fill="#FFFFFF" d="M124.2,226.48c0.7,1.75,1.96,2.91,3.78,3.46c1.82,0.56,4.76,0.84,8.82,0.84h12.6
		c9.94,0,18.34-2.76,25.2-8.29c6.86-5.53,11.41-12.98,13.65-22.37c0-0.28,0.28-0.42,0.84-0.42c0.28,0,0.59,0.11,0.95,0.32
		c0.35,0.21,0.53,0.39,0.53,0.52c-1.26,12.88-1.89,23.73-1.89,32.55c0,1.12-0.21,1.93-0.63,2.42c-0.42,0.49-1.26,0.74-2.52,0.74
		H87.24c-0.28,0-0.42-0.42-0.42-1.26s0.14-1.26,0.42-1.26c4.76,0,8.22-0.35,10.4-1.05c2.17-0.7,3.64-2.06,4.41-4.09
		c0.77-2.03,1.16-5.14,1.16-9.34v-97.23c0-4.2-0.39-7.28-1.16-9.24c-0.77-1.96-2.28-3.32-4.52-4.1c-2.24-0.77-5.67-1.15-10.29-1.15
		c-0.28,0-0.42-0.42-0.42-1.26c0-0.84,0.14-1.26,0.42-1.26l10.71,0.21c6.16,0.28,11.2,0.42,15.12,0.42c4.2,0,9.38-0.14,15.54-0.42
		l10.5-0.21c0.42,0,0.63,0.42,0.63,1.26c0,0.84-0.21,1.26-0.63,1.26c-4.62,0-8.05,0.39-10.29,1.15c-2.24,0.77-3.75,2.17-4.51,4.2
		c-0.77,2.03-1.16,5.15-1.16,9.35v96.18C123.15,222.04,123.5,224.74,124.2,226.48z"/>
	<path fill="#FFFFFF" d="M290.87,203.28c-0.7,0-1.05,0.14-1.05,0.42c-5.04,18.06-16.94,27.09-35.7,27.09h-10.29
		c-4.48,0-7.6-0.91-9.34-2.73c-1.75-1.82-2.62-5.04-2.62-9.66v-47.67h19.95c15.68,0,23.52,6.02,23.52,18.06
		c0,0.28,0.42,0.42,1.26,0.42s1.26-0.14,1.26-0.42c0-2.8-0.14-6.44-0.42-10.92l-0.21-9.87l0.21-18.27c0-0.42-0.39-0.63-1.16-0.63
		c-0.77,0-1.15,0.21-1.15,0.63c0,10.36-7.7,15.54-23.1,15.54h-20.16v-42.84c0-4.34,1.01-7.42,3.04-9.24
		c2.03-1.82,5.63-2.73,10.81-2.73h8.61c15.96,0,25.62,7.91,28.98,23.73c0.14,0.42,0.59,0.6,1.37,0.52c0.77-0.07,1.16-0.24,1.16-0.52
		l-0.42-27.3c0-1.26-0.7-1.89-2.1-1.89h-87.36c-0.42,0-0.63,0.42-0.63,1.26c0,0.84,0.21,1.26,0.63,1.26c4.62,0,8.05,0.39,10.29,1.15
		c2.24,0.77,3.74,2.14,4.51,4.1c0.77,1.96,1.16,5.04,1.16,9.24v97.23c0,4.2-0.39,7.32-1.16,9.34c-0.77,2.03-2.24,3.4-4.41,4.09
		c-2.17,0.7-5.64,1.05-10.39,1.05c-0.42,0-0.63,0.42-0.63,1.26s0.21,1.26,0.63,1.26h91.14c1.26,0,2.1-0.24,2.52-0.74
		c0.42-0.49,0.63-1.29,0.63-2.42c0-8.82,0.7-18.55,2.1-29.19C292.33,203.49,291.84,203.28,290.87,203.28z"/>
</g>
<g>
	<path fill="#FFFFFF" d="M124.9,279.22c0.07,0.18,0.21,0.3,0.4,0.36c0.19,0.06,0.5,0.09,0.92,0.09h1.32c1.04,0,1.92-0.29,2.64-0.87
		c0.72-0.58,1.2-1.36,1.43-2.34c0-0.03,0.03-0.04,0.09-0.04c0.03,0,0.06,0.01,0.1,0.03c0.04,0.02,0.05,0.04,0.05,0.05
		c-0.13,1.35-0.2,2.49-0.2,3.41c0,0.12-0.02,0.2-0.07,0.25c-0.04,0.05-0.13,0.08-0.26,0.08h-10.3c-0.03,0-0.04-0.04-0.04-0.13
		s0.01-0.13,0.04-0.13c0.5,0,0.86-0.04,1.09-0.11c0.23-0.07,0.38-0.22,0.46-0.43s0.12-0.54,0.12-0.98v-10.19
		c0-0.44-0.04-0.76-0.12-0.97c-0.08-0.21-0.24-0.35-0.47-0.43c-0.23-0.08-0.59-0.12-1.08-0.12c-0.03,0-0.04-0.04-0.04-0.13
		s0.01-0.13,0.04-0.13l1.12,0.02c0.65,0.03,1.17,0.04,1.58,0.04c0.44,0,0.98-0.01,1.63-0.04l1.1-0.02c0.04,0,0.07,0.04,0.07,0.13
		s-0.02,0.13-0.07,0.13c-0.48,0-0.84,0.04-1.08,0.12c-0.23,0.08-0.39,0.23-0.47,0.44s-0.12,0.54-0.12,0.98v10.08
		C124.79,278.75,124.82,279.04,124.9,279.22z"/>
	<path fill="#FFFFFF" d="M135.06,279.9c-0.67-0.42-1.2-0.98-1.56-1.69c-0.37-0.71-0.55-1.48-0.55-2.32c0-0.95,0.24-1.76,0.71-2.43
		c0.48-0.67,1.09-1.17,1.83-1.5c0.74-0.33,1.5-0.5,2.28-0.5c0.89,0,1.68,0.21,2.34,0.64c0.67,0.42,1.18,0.99,1.53,1.68
		c0.35,0.7,0.53,1.44,0.53,2.23c0,0.88-0.22,1.66-0.65,2.35s-1.02,1.22-1.75,1.59s-1.53,0.56-2.38,0.56
		C136.51,280.53,135.73,280.32,135.06,279.9z M139.55,279.23c0.35-0.57,0.53-1.41,0.53-2.51c0-0.98-0.14-1.84-0.41-2.57
		s-0.64-1.29-1.1-1.67c-0.46-0.38-0.97-0.57-1.53-0.57c-0.66,0-1.16,0.27-1.51,0.81c-0.34,0.54-0.52,1.34-0.52,2.4
		c0,0.95,0.13,1.81,0.4,2.56c0.26,0.76,0.63,1.35,1.09,1.77c0.46,0.43,0.98,0.64,1.55,0.64C138.7,280.09,139.2,279.8,139.55,279.23z
		"/>
	<path fill="#FFFFFF" d="M143.75,280.11c0-0.09,0.02-0.13,0.07-0.13c0.5,0,0.83-0.1,0.99-0.31c0.16-0.21,0.24-0.61,0.24-1.21v-4.2
		c0-0.47-0.05-0.81-0.16-1.03c-0.11-0.22-0.29-0.33-0.54-0.33c-0.22,0-0.59,0.11-1.1,0.33h-0.02c-0.06,0-0.1-0.04-0.13-0.11
		s-0.02-0.12,0.02-0.13l2.88-1.41c0.09-0.03,0.14-0.04,0.15-0.04c0.16,0,0.32,0.18,0.46,0.55c0.15,0.37,0.22,0.84,0.22,1.43v4.95
		c0,0.41,0.06,0.72,0.18,0.94s0.32,0.36,0.6,0.45c0.29,0.09,0.7,0.13,1.24,0.13c0.06,0,0.09,0.04,0.09,0.13s-0.03,0.13-0.09,0.13
		c-0.5,0-0.89-0.01-1.19-0.02l-1.72-0.02l-1.28,0.02c-0.21,0.02-0.49,0.02-0.86,0.02C143.77,280.24,143.75,280.2,143.75,280.11z
		 M148.06,272.07c0.47-0.36,0.89-0.54,1.25-0.54c0.32,0,0.64,0.11,0.95,0.33c0.31,0.22,0.46,0.48,0.46,0.79
		c0,0.28-0.08,0.5-0.24,0.67c-0.16,0.17-0.39,0.25-0.68,0.25c-0.19,0-0.35-0.04-0.46-0.11c-0.12-0.07-0.25-0.18-0.4-0.33
		c-0.13-0.13-0.25-0.23-0.35-0.3c-0.1-0.07-0.23-0.1-0.37-0.1c-0.19,0-0.41,0.1-0.65,0.29c-0.24,0.19-0.66,0.61-1.24,1.25
		l-0.15-0.26C146.96,273.08,147.59,272.43,148.06,272.07z"/>
	<path fill="#FFFFFF" d="M153.62,279.91c-0.65-0.4-1.15-0.92-1.5-1.56c-0.34-0.65-0.52-1.34-0.52-2.09c0-0.87,0.21-1.66,0.64-2.38
		c0.43-0.72,1.01-1.29,1.75-1.71c0.74-0.42,1.57-0.63,2.48-0.63c0.88,0,1.56,0.21,2.04,0.64c0.48,0.43,0.71,1.06,0.71,1.89
		c0,0.22-0.02,0.38-0.05,0.48c-0.04,0.1-0.1,0.15-0.19,0.15h-1.8c0.07-1.82-0.43-2.73-1.5-2.73c-0.66,0-1.18,0.3-1.55,0.9
		s-0.56,1.42-0.56,2.44c0,1.29,0.3,2.31,0.9,3.07c0.6,0.76,1.45,1.13,2.55,1.13c0.41,0,0.75-0.05,1.03-0.15
		c0.28-0.1,0.65-0.27,1.1-0.51l0.04-0.02c0.03,0,0.06,0.03,0.1,0.09s0.04,0.1,0.01,0.13c-0.53,0.5-1.06,0.86-1.61,1.09
		s-1.13,0.34-1.76,0.34C155.04,280.51,154.27,280.31,153.62,279.91z M152.9,274.37l4.88-0.09v0.44l-4.86,0.02L152.9,274.37z"/>
	<path fill="#FFFFFF" d="M160.82,280.11c0-0.09,0.02-0.13,0.07-0.13c0.5,0,0.83-0.1,0.99-0.31c0.16-0.21,0.24-0.61,0.24-1.21v-4.2
		c0-0.47-0.05-0.81-0.16-1.03c-0.11-0.22-0.29-0.33-0.54-0.33c-0.22,0-0.59,0.11-1.1,0.33h-0.02c-0.06,0-0.1-0.04-0.13-0.11
		s-0.02-0.12,0.02-0.13l2.88-1.41c0.09-0.03,0.14-0.04,0.15-0.04c0.16,0,0.32,0.18,0.46,0.55c0.15,0.37,0.22,0.84,0.22,1.43v4.95
		c0,0.6,0.08,1,0.25,1.21c0.17,0.21,0.5,0.31,1,0.31c0.04,0,0.07,0.04,0.07,0.13s-0.02,0.13-0.07,0.13c-0.37,0-0.66-0.01-0.88-0.02
		l-1.25-0.02l-1.28,0.02c-0.21,0.02-0.49,0.02-0.86,0.02C160.84,280.24,160.82,280.2,160.82,280.11z M166.74,280.11
		c0-0.09,0.02-0.13,0.07-0.13c0.5,0,0.83-0.1,0.99-0.31c0.16-0.21,0.24-0.61,0.24-1.21v-3.3c0-0.82-0.15-1.43-0.45-1.82
		c-0.3-0.39-0.77-0.58-1.42-0.58c-0.48,0-0.97,0.13-1.46,0.4c-0.49,0.26-0.89,0.62-1.2,1.06l-0.11-0.26
		c1.17-1.64,2.46-2.46,3.87-2.46c0.81,0,1.43,0.24,1.88,0.73c0.45,0.48,0.67,1.15,0.67,2v4.25c0,0.6,0.08,1,0.25,1.21
		c0.17,0.21,0.5,0.31,1,0.31c0.04,0,0.07,0.04,0.07,0.13s-0.02,0.13-0.07,0.13c-0.37,0-0.66-0.01-0.88-0.02l-1.25-0.02l-1.25,0.02
		c-0.22,0.02-0.51,0.02-0.88,0.02C166.76,280.24,166.74,280.2,166.74,280.11z"/>
	<path fill="#FFFFFF" d="M172.97,279.98c-0.31-0.28-0.46-0.66-0.46-1.14c0-0.4,0.11-0.72,0.32-0.97c0.21-0.25,0.48-0.45,0.8-0.61
		c0.32-0.15,0.81-0.35,1.45-0.58l2.35-0.88l0.07,0.33l-1.61,0.68c-0.4,0.16-0.71,0.34-0.95,0.53c-0.23,0.19-0.35,0.48-0.35,0.86
		c0,0.35,0.11,0.63,0.34,0.84s0.5,0.31,0.8,0.31c0.28,0,0.56-0.09,0.86-0.26l1.19-0.79l0.02,0.33l-1.56,1.1
		c-0.35,0.25-0.67,0.43-0.96,0.53s-0.6,0.15-0.96,0.15C173.73,280.4,173.27,280.26,172.97,279.98z M178.27,280.42
		c-0.26,0-0.51-0.18-0.73-0.54c-0.22-0.36-0.33-0.84-0.33-1.44v-3.87c0-0.91-0.09-1.57-0.28-1.99s-0.47-0.63-0.87-0.63
		c-0.48,0-0.83,0.18-1.05,0.54c-0.21,0.36-0.34,0.76-0.38,1.2c-0.09,0.75-0.46,1.12-1.12,1.12c-0.32,0-0.56-0.07-0.71-0.22
		c-0.15-0.15-0.23-0.33-0.23-0.55c0-0.41,0.25-0.81,0.74-1.2c0.49-0.39,1.09-0.7,1.78-0.95c0.7-0.24,1.31-0.36,1.84-0.36
		c0.63,0,1.13,0.2,1.51,0.59c0.37,0.4,0.56,0.99,0.56,1.78v3.96c0,0.92,0.29,1.39,0.86,1.39c0.22,0,0.48-0.07,0.79-0.2h0.04
		c0.06,0,0.1,0.03,0.11,0.1c0.01,0.07-0.01,0.11-0.07,0.14l-2.27,1.08C178.41,280.4,178.34,280.42,178.27,280.42z"/>
	<path fill="#FFFFFF" d="M186.74,280.11c0-0.09,0.02-0.13,0.07-0.13c0.5,0,0.86-0.04,1.09-0.11c0.23-0.07,0.38-0.22,0.46-0.43
		c0.08-0.21,0.12-0.54,0.12-0.98v-10.19c0-0.44-0.04-0.76-0.12-0.97c-0.08-0.21-0.24-0.35-0.47-0.43c-0.23-0.08-0.59-0.12-1.08-0.12
		c-0.04,0-0.07-0.04-0.07-0.13s0.02-0.13,0.07-0.13h9.15c0.15,0,0.22,0.07,0.22,0.2l0.04,2.86c0,0.03-0.04,0.05-0.12,0.06
		c-0.08,0.01-0.13-0.01-0.14-0.06c-0.35-1.66-1.36-2.49-3.04-2.49h-0.9c-0.54,0-0.92,0.1-1.13,0.29c-0.21,0.19-0.32,0.51-0.32,0.97
		v10.05c0,0.48,0.09,0.82,0.27,1.01c0.18,0.19,0.51,0.29,0.98,0.29h1.08c1.97,0,3.21-0.95,3.74-2.84c0-0.03,0.04-0.04,0.11-0.04
		c0.1,0,0.15,0.02,0.15,0.07c-0.15,1.11-0.22,2.13-0.22,3.06c0,0.12-0.02,0.2-0.07,0.25c-0.04,0.05-0.13,0.08-0.26,0.08h-9.55
		C186.76,280.24,186.74,280.2,186.74,280.11z M192.66,273.38h-3.08v-0.57h3.1c1.61,0,2.42-0.54,2.42-1.63
		c0-0.04,0.04-0.07,0.12-0.07c0.08,0,0.12,0.02,0.12,0.07l-0.02,1.91l0.02,1.03c0.03,0.47,0.04,0.85,0.04,1.14
		c0,0.03-0.04,0.04-0.13,0.04s-0.13-0.01-0.13-0.04C195.12,274.01,194.3,273.38,192.66,273.38z"/>
	<path fill="#FFFFFF" d="M198.75,280.11c0-0.09,0.02-0.13,0.07-0.13c0.5,0,0.83-0.1,0.99-0.31c0.16-0.21,0.24-0.61,0.24-1.21v-4.2
		c0-0.47-0.05-0.81-0.17-1.03c-0.11-0.22-0.29-0.33-0.54-0.33c-0.22,0-0.59,0.11-1.1,0.33h-0.02c-0.06,0-0.1-0.04-0.13-0.11
		s-0.02-0.12,0.02-0.13l2.88-1.41c0.09-0.03,0.14-0.04,0.15-0.04c0.16,0,0.31,0.18,0.46,0.55c0.15,0.37,0.22,0.84,0.22,1.43v4.95
		c0,0.6,0.08,1,0.25,1.21c0.17,0.21,0.5,0.31,1,0.31c0.04,0,0.07,0.04,0.07,0.13s-0.02,0.13-0.07,0.13c-0.37,0-0.66-0.01-0.88-0.02
		l-1.25-0.02l-1.28,0.02c-0.21,0.02-0.49,0.02-0.86,0.02C198.77,280.24,198.75,280.2,198.75,280.11z M204.67,280.11
		c0-0.09,0.02-0.13,0.07-0.13c0.5,0,0.83-0.1,0.99-0.31c0.16-0.21,0.24-0.61,0.24-1.21v-3.3c0-0.82-0.15-1.43-0.45-1.82
		c-0.3-0.39-0.77-0.58-1.42-0.58c-0.48,0-0.97,0.13-1.46,0.4s-0.89,0.62-1.2,1.06l-0.11-0.26c1.17-1.64,2.46-2.46,3.87-2.46
		c0.81,0,1.43,0.24,1.88,0.73c0.45,0.48,0.67,1.15,0.67,2v4.25c0,0.6,0.08,1,0.25,1.21c0.17,0.21,0.5,0.31,1,0.31
		c0.04,0,0.07,0.04,0.07,0.13s-0.02,0.13-0.07,0.13c-0.37,0-0.66-0.01-0.88-0.02l-1.25-0.02l-1.25,0.02
		c-0.22,0.02-0.51,0.02-0.88,0.02C204.69,280.24,204.67,280.2,204.67,280.11z"/>
	<path fill="#FFFFFF" d="M210.95,285.74c-0.62-0.46-0.94-1.05-0.94-1.78c0-0.57,0.23-1.14,0.68-1.72c0.45-0.57,1.19-1.16,2.2-1.76
		l0.22,0.26c-0.44,0.25-0.78,0.55-1.01,0.89c-0.23,0.34-0.35,0.78-0.35,1.31c0,0.88,0.27,1.57,0.8,2.06s1.21,0.74,2.04,0.74
		c0.84,0,1.51-0.25,2.02-0.74c0.51-0.49,0.77-1.15,0.77-1.99c0-0.62-0.14-1.07-0.41-1.35s-0.63-0.46-1.08-0.53
		c-0.45-0.07-1.09-0.11-1.92-0.12c-1.06-0.01-1.88-0.13-2.46-0.34s-0.88-0.66-0.88-1.33c0-0.51,0.17-0.99,0.52-1.43
		s0.88-0.87,1.6-1.28l0.22,0.15c-0.32,0.21-0.56,0.42-0.7,0.65s-0.22,0.49-0.22,0.78c0,0.53,0.22,0.87,0.65,1.01
		s1.18,0.23,2.26,0.24c0.84,0.01,1.52,0.06,2.05,0.13c0.53,0.07,0.99,0.28,1.38,0.62c0.39,0.34,0.58,0.87,0.58,1.58
		c0,0.81-0.26,1.57-0.77,2.28c-0.51,0.71-1.2,1.28-2.05,1.71c-0.85,0.42-1.76,0.64-2.73,0.64
		C212.39,286.42,211.57,286.2,210.95,285.74z M212.08,276.9c-0.51-0.28-0.91-0.64-1.19-1.09s-0.42-0.92-0.42-1.42
		c0-0.57,0.18-1.07,0.53-1.5c0.35-0.43,0.81-0.75,1.38-0.97c0.56-0.22,1.17-0.33,1.82-0.33c0.69,0,1.29,0.12,1.8,0.37
		c0.51,0.25,0.91,0.59,1.19,1.01c0.28,0.43,0.42,0.89,0.42,1.39c0,0.56-0.18,1.06-0.53,1.52c-0.35,0.46-0.81,0.81-1.39,1.06
		c-0.57,0.25-1.18,0.37-1.83,0.37C213.19,277.32,212.59,277.18,212.08,276.9z M215.34,276.46c0.25-0.32,0.37-0.83,0.37-1.52
		c0-0.62-0.11-1.15-0.32-1.6c-0.21-0.45-0.48-0.78-0.81-1.01c-0.33-0.23-0.68-0.34-1.04-0.34c-0.79,0-1.19,0.59-1.19,1.78
		c0,0.63,0.1,1.18,0.3,1.66c0.2,0.48,0.46,0.85,0.77,1.11c0.32,0.26,0.64,0.4,0.98,0.4C214.77,276.94,215.09,276.78,215.34,276.46z
		 M217.48,271.82c0.45-0.18,0.93-0.26,1.44-0.26c0.1,0,0.15,0.19,0.15,0.57c0,0.19-0.03,0.4-0.08,0.62
		c-0.05,0.22-0.11,0.32-0.17,0.29c-0.54-0.23-1.07-0.35-1.58-0.35c-0.37,0-0.71,0.05-1.03,0.15l-0.15,0.48l0.02-0.7
		C216.57,272.26,217.04,271.99,217.48,271.82z"/>
	<path fill="#FFFFFF" d="M220.2,280.11c0-0.09,0.02-0.13,0.07-0.13c0.5,0,0.83-0.1,1-0.31c0.17-0.21,0.25-0.61,0.25-1.21v-4
		c0-0.5-0.05-0.86-0.15-1.09c-0.1-0.23-0.28-0.34-0.53-0.34c-0.23,0-0.53,0.09-0.88,0.26h-0.02c-0.06,0-0.1-0.04-0.13-0.11
		s-0.02-0.12,0.02-0.15l3.17-1.47l0.07-0.02c0.06,0,0.12,0.03,0.19,0.1c0.07,0.07,0.1,0.12,0.1,0.17v0.46
		c-0.03,0.62-0.04,1.34-0.04,2.18v4.03c0,0.6,0.08,1,0.25,1.21c0.17,0.21,0.5,0.31,1,0.31c0.04,0,0.07,0.04,0.07,0.13
		s-0.02,0.13-0.07,0.13c-0.37,0-0.66-0.01-0.88-0.02l-1.28-0.02l-1.28,0.02c-0.21,0.02-0.49,0.02-0.86,0.02
		C220.22,280.24,220.2,280.2,220.2,280.11z M221.4,268.91c-0.21-0.21-0.32-0.5-0.32-0.88c0-0.35,0.11-0.63,0.32-0.84
		c0.21-0.21,0.51-0.31,0.89-0.31c0.37,0,0.65,0.1,0.85,0.31s0.3,0.48,0.3,0.84c0,0.38-0.1,0.67-0.3,0.88
		c-0.2,0.21-0.48,0.31-0.85,0.31C221.91,269.22,221.61,269.12,221.4,268.91z"/>
	<path fill="#FFFFFF" d="M225.99,280.11c0-0.09,0.02-0.13,0.07-0.13c0.5,0,0.83-0.1,0.99-0.31c0.16-0.21,0.24-0.61,0.24-1.21v-4.2
		c0-0.47-0.05-0.81-0.17-1.03c-0.11-0.22-0.29-0.33-0.54-0.33c-0.22,0-0.59,0.11-1.1,0.33h-0.02c-0.06,0-0.1-0.04-0.13-0.11
		s-0.02-0.12,0.02-0.13l2.88-1.41c0.09-0.03,0.14-0.04,0.15-0.04c0.16,0,0.31,0.18,0.46,0.55c0.15,0.37,0.22,0.84,0.22,1.43v4.95
		c0,0.6,0.08,1,0.25,1.21c0.17,0.21,0.5,0.31,1,0.31c0.04,0,0.07,0.04,0.07,0.13s-0.02,0.13-0.07,0.13c-0.37,0-0.66-0.01-0.88-0.02
		l-1.25-0.02l-1.28,0.02c-0.21,0.02-0.49,0.02-0.86,0.02C226.01,280.24,225.99,280.2,225.99,280.11z M231.9,280.11
		c0-0.09,0.02-0.13,0.07-0.13c0.5,0,0.83-0.1,0.99-0.31c0.16-0.21,0.24-0.61,0.24-1.21v-3.3c0-0.82-0.15-1.43-0.45-1.82
		c-0.3-0.39-0.77-0.58-1.42-0.58c-0.48,0-0.97,0.13-1.46,0.4s-0.89,0.62-1.2,1.06l-0.11-0.26c1.17-1.64,2.46-2.46,3.87-2.46
		c0.81,0,1.43,0.24,1.88,0.73c0.45,0.48,0.67,1.15,0.67,2v4.25c0,0.6,0.08,1,0.25,1.21c0.17,0.21,0.5,0.31,1,0.31
		c0.04,0,0.07,0.04,0.07,0.13s-0.02,0.13-0.07,0.13c-0.37,0-0.66-0.01-0.88-0.02l-1.25-0.02l-1.25,0.02
		c-0.22,0.02-0.51,0.02-0.88,0.02C231.93,280.24,231.9,280.2,231.9,280.11z"/>
	<path fill="#FFFFFF" d="M239.39,279.91c-0.65-0.4-1.15-0.92-1.5-1.56s-0.52-1.34-0.52-2.09c0-0.87,0.21-1.66,0.64-2.38
		c0.42-0.72,1.01-1.29,1.75-1.71c0.74-0.42,1.57-0.63,2.47-0.63c0.88,0,1.56,0.21,2.04,0.64s0.71,1.06,0.71,1.89
		c0,0.22-0.02,0.38-0.05,0.48c-0.04,0.1-0.1,0.15-0.19,0.15h-1.8c0.07-1.82-0.43-2.73-1.5-2.73c-0.66,0-1.18,0.3-1.55,0.9
		s-0.56,1.42-0.56,2.44c0,1.29,0.3,2.31,0.9,3.07c0.6,0.76,1.45,1.13,2.55,1.13c0.41,0,0.76-0.05,1.03-0.15
		c0.28-0.1,0.65-0.27,1.1-0.51l0.04-0.02c0.03,0,0.06,0.03,0.1,0.09c0.04,0.06,0.04,0.1,0.01,0.13c-0.53,0.5-1.06,0.86-1.61,1.09
		c-0.54,0.23-1.13,0.34-1.76,0.34C240.82,280.51,240.05,280.31,239.39,279.91z M238.68,274.37l4.88-0.09v0.44l-4.86,0.02
		L238.68,274.37z"/>
	<path fill="#FFFFFF" d="M248.37,279.91c-0.65-0.4-1.15-0.92-1.5-1.56s-0.52-1.34-0.52-2.09c0-0.87,0.21-1.66,0.64-2.38
		c0.42-0.72,1.01-1.29,1.75-1.71c0.74-0.42,1.57-0.63,2.47-0.63c0.88,0,1.56,0.21,2.04,0.64s0.71,1.06,0.71,1.89
		c0,0.22-0.02,0.38-0.05,0.48c-0.04,0.1-0.1,0.15-0.19,0.15h-1.8c0.07-1.82-0.43-2.73-1.5-2.73c-0.66,0-1.18,0.3-1.55,0.9
		s-0.56,1.42-0.56,2.44c0,1.29,0.3,2.31,0.9,3.07c0.6,0.76,1.45,1.13,2.55,1.13c0.41,0,0.76-0.05,1.03-0.15
		c0.28-0.1,0.65-0.27,1.1-0.51l0.04-0.02c0.03,0,0.06,0.03,0.1,0.09c0.04,0.06,0.04,0.1,0.01,0.13c-0.53,0.5-1.06,0.86-1.61,1.09
		c-0.54,0.23-1.13,0.34-1.76,0.34C249.8,280.51,249.02,280.31,248.37,279.91z M247.66,274.37l4.88-0.09v0.44l-4.86,0.02
		L247.66,274.37z"/>
	<path fill="#FFFFFF" d="M255.57,280.11c0-0.09,0.02-0.13,0.07-0.13c0.5,0,0.83-0.1,0.99-0.31c0.16-0.21,0.24-0.61,0.24-1.21v-4.2
		c0-0.47-0.05-0.81-0.17-1.03c-0.11-0.22-0.29-0.33-0.54-0.33c-0.22,0-0.59,0.11-1.1,0.33h-0.02c-0.06,0-0.1-0.04-0.13-0.11
		s-0.02-0.12,0.02-0.13l2.88-1.41c0.09-0.03,0.14-0.04,0.15-0.04c0.16,0,0.31,0.18,0.46,0.55c0.15,0.37,0.22,0.84,0.22,1.43v4.95
		c0,0.41,0.06,0.72,0.18,0.94s0.32,0.36,0.61,0.45c0.29,0.09,0.7,0.13,1.24,0.13c0.06,0,0.09,0.04,0.09,0.13s-0.03,0.13-0.09,0.13
		c-0.5,0-0.9-0.01-1.19-0.02l-1.72-0.02l-1.28,0.02c-0.21,0.02-0.49,0.02-0.86,0.02C255.6,280.24,255.57,280.2,255.57,280.11z
		 M259.89,272.07c0.47-0.36,0.89-0.54,1.25-0.54c0.32,0,0.64,0.11,0.95,0.33c0.31,0.22,0.46,0.48,0.46,0.79
		c0,0.28-0.08,0.5-0.24,0.67c-0.16,0.17-0.39,0.25-0.68,0.25c-0.19,0-0.34-0.04-0.46-0.11c-0.12-0.07-0.25-0.18-0.4-0.33
		c-0.13-0.13-0.25-0.23-0.35-0.3c-0.1-0.07-0.23-0.1-0.37-0.1c-0.19,0-0.41,0.1-0.65,0.29c-0.24,0.19-0.66,0.61-1.24,1.25
		l-0.15-0.26C258.79,273.08,259.42,272.43,259.89,272.07z"/>
</g>
<g>
	
		<circle fill="none" stroke="#FFFFFF" stroke-width="4" stroke-linecap="round" stroke-miterlimit="10" stroke-dasharray="0,14.9602" cx="189.48" cy="187.5" r="159.52"/>
</g>
</svg>
